<?xml version="1.0" standalone="no"?>
<!DOCTYPE svg PUBLIC "-//W3C//DTD SVG 20010904//EN"
 "http://www.w3.org/TR/2001/REC-SVG-20010904/DTD/svg10.dtd">
<svg version="1.0" xmlns="http://www.w3.org/2000/svg"
 width="561.000000pt" height="288.000000pt" viewBox="0 0 561.000000 288.000000"
 preserveAspectRatio="xMidYMid meet">

<g transform="translate(0.000000,288.000000) scale(0.100000,-0.100000)"
fill="#000000" stroke="none">
<path d="M949 2701 c-78 -24 -93 -51 -119 -209 -11 -64 -20 -120 -20 -124 0
-4 -21 -16 -47 -28 -26 -11 -56 -28 -67 -38 -25 -23 -56 -90 -56 -125 0 -15
-16 -62 -35 -104 -45 -95 -68 -193 -59 -247 7 -46 36 -106 92 -195 38 -61 38
-61 30 -133 -8 -73 -3 -123 13 -144 8 -10 -83 -378 -211 -852 -28 -101 -50
-190 -50 -198 0 -11 -21 -14 -106 -14 -114 0 -144 -9 -144 -42 l0 -21 323 7
c848 17 1108 24 1115 31 9 8 -10 25 -29 25 -23 0 -22 -27 -9 405 20 669 20
678 40 700 19 21 14 55 -10 70 -9 5 -10 45 -6 144 15 350 18 636 6 666 l-12
30 -13 -25 c-12 -20 -14 -100 -15 -407 0 -211 -3 -383 -7 -382 -5 0 -27 8 -50
17 -37 15 -53 34 -146 177 -101 153 -106 164 -130 265 -14 58 -30 147 -36 198
-13 118 -30 150 -95 172 -34 11 -53 24 -64 45 -16 31 -13 47 23 145 17 46 15
123 -5 161 -7 13 -67 44 -74 38 -1 0 -13 -4 -27 -8z m-189 -738 c28 -88 26
-111 -24 -214 -51 -106 -53 -105 -82 28 l-17 83 31 80 c18 45 32 85 32 90 0 5
5 21 11 37 l12 28 9 -35 c5 -19 17 -63 28 -97z m394 -153 c8 -37 117 -183 204
-272 42 -43 71 -78 65 -78 -5 0 -48 23 -94 51 -46 28 -96 59 -111 68 -15 9
-30 28 -33 43 -4 14 -12 29 -20 32 -8 3 -17 22 -20 43 -4 21 -11 50 -17 65 -6
17 -7 47 -3 75 7 42 9 45 15 23 5 -14 11 -36 14 -50z m-450 -560 c-30 -196
-30 -186 8 -210 42 -26 69 -25 103 2 l28 22 -6 -115 c-6 -119 11 -245 48 -350
13 -34 54 -265 55 -301 0 -5 -110 -8 -245 -8 -135 0 -245 3 -245 8 -1 20 265
1084 268 1071 1 -8 -5 -62 -14 -119z m841 -587 l-7 -373 -222 0 -222 0 -27 28
c-40 42 -55 90 -73 229 l-17 128 27 39 c14 22 36 71 47 110 36 124 35 122 133
183 101 62 272 192 326 248 l35 36 3 -128 c2 -70 0 -296 -3 -500z m-343 497
c-132 -126 -240 -195 -236 -152 1 7 2 48 3 92 l1 79 48 28 c46 27 101 37 237
41 l40 1 -93 -89z"/>
<path d="M3275 1821 l-30 -7 40 -18 c22 -10 60 -22 84 -27 107 -22 183 -127
164 -228 l-6 -34 32 22 c36 26 39 53 15 123 -40 119 -181 198 -299 169z"/>
<path d="M2550 1801 c-88 -27 -130 -76 -130 -152 0 -38 6 -53 28 -77 27 -29
53 -39 180 -72 32 -8 42 -15 40 -28 -5 -26 -92 -28 -157 -3 l-52 19 -24 -55
c-14 -31 -25 -57 -25 -59 0 -2 32 -13 71 -25 89 -27 207 -24 260 7 90 53 107
172 33 227 -14 10 -63 28 -110 40 -84 20 -112 40 -83 58 21 13 82 11 129 -6
23 -8 44 -15 45 -15 1 0 13 23 25 52 21 48 21 52 5 64 -38 28 -176 43 -235 25z"/>
<path d="M5100 1801 c-43 -14 -104 -48 -122 -68 -71 -79 -77 -222 -11 -310 64
-87 204 -116 333 -70 l65 23 3 102 3 102 -66 0 -65 0 0 -60 c0 -58 -1 -60 -27
-62 -76 -4 -107 12 -128 64 -45 113 68 202 173 138 l33 -20 45 36 c24 20 44
40 44 43 0 12 -43 48 -79 66 -37 19 -162 29 -201 16z"/>
<path d="M1660 1793 c0 -4 42 -107 94 -228 l93 -220 78 0 78 0 87 205 c119
280 116 250 27 250 l-74 0 -54 -130 c-30 -71 -57 -126 -61 -122 -3 4 -29 61
-56 127 l-49 120 -81 3 c-45 2 -82 -1 -82 -5z"/>
<path d="M2210 1570 l0 -230 75 0 75 0 0 230 0 230 -75 0 -75 0 0 -230z"/>
<path d="M2870 1570 l0 -230 75 0 75 0 0 230 0 230 -75 0 -75 0 0 -230z"/>
<path d="M3182 1777 c-70 -52 -102 -117 -102 -210 0 -65 31 -149 67 -178 14
-12 15 -8 8 41 -4 30 -11 65 -16 78 -14 36 -11 99 6 140 20 47 50 79 99 104
l40 20 -33 14 c-40 17 -31 18 -69 -9z"/>
<path d="M3650 1570 l0 -230 75 0 75 0 0 94 c0 52 3 97 8 99 4 2 43 -40 87
-94 l80 -98 68 0 67 -1 0 230 0 230 -75 0 -75 0 0 -101 c0 -55 -4 -99 -9 -97
-4 2 -45 47 -90 101 l-82 97 -64 0 -65 0 0 -230z"/>
<path d="M4180 1570 l0 -230 75 0 75 0 0 230 0 230 -75 0 -75 0 0 -230z"/>
<path d="M4410 1570 l0 -230 75 0 74 0 3 101 3 101 84 -101 83 -101 64 0 64 0
0 230 0 230 -75 0 -74 0 -3 -102 -3 -102 -84 102 -85 102 -63 0 -63 0 0 -230z"/>
<path d="M3297 1629 c-63 -37 -22 -142 48 -125 56 14 73 75 32 114 -25 24 -52
27 -80 11z"/>
<path d="M3565 1509 c-5 -5 -35 -32 -65 -60 -30 -28 -69 -57 -87 -65 -66 -28
-162 -13 -215 34 -16 14 -18 13 -18 -4 0 -40 13 -62 44 -77 122 -58 277 -3
336 118 22 45 24 70 5 54z"/>
<path d="M4714 1180 c-151 -36 -213 -230 -111 -347 76 -87 211 -97 317 -24 12
8 12 12 -3 29 -17 19 -18 19 -65 -5 -87 -45 -184 -14 -223 71 -24 53 -24 90 1
140 28 57 63 79 130 84 53 4 86 -4 122 -30 15 -10 21 -9 35 5 17 18 17 19 -12
42 -16 14 -51 29 -78 35 -54 11 -68 11 -113 0z"/>
<path d="M1730 970 l0 -210 146 0 145 0 -3 28 -3 27 -110 1 -110 1 -3 181 -2
182 -30 0 -30 0 0 -210z"/>
<path d="M2122 978 c-51 -112 -92 -206 -92 -210 0 -5 13 -8 29 -8 25 0 31 6
51 55 l22 55 112 0 112 0 23 -55 c20 -49 26 -55 52 -55 16 0 29 3 29 7 0 5
-41 99 -92 210 -91 200 -93 203 -123 203 -31 0 -32 -3 -123 -202z m167 43 c23
-52 39 -97 35 -100 -8 -9 -164 -9 -164 0 0 10 82 200 85 197 1 -2 21 -45 44
-97z"/>
<path d="M2526 1158 c1 -13 3 -108 3 -211 l1 -189 133 4 c148 4 185 16 213 69
22 43 11 91 -28 124 -28 24 -29 27 -15 43 49 53 38 131 -23 163 -28 16 -57 19
-161 19 -124 0 -126 0 -123 -22z m246 -40 c29 -19 38 -45 27 -76 -12 -31 -48
-42 -140 -42 l-79 0 0 58 c0 32 5 63 12 70 17 17 149 10 180 -10z m40 -197
c21 -27 18 -64 -8 -91 -19 -19 -203 -28 -214 -11 -5 10 -6 87 -1 124 0 5 46 7
102 5 93 -3 102 -5 121 -27z"/>
<path d="M3241 1118 c-16 -35 -59 -128 -95 -207 -36 -80 -66 -146 -66 -148 0
-2 14 -3 30 -3 27 0 33 6 55 55 l24 55 110 0 110 0 25 -55 c22 -49 28 -55 55
-55 36 0 44 -23 -72 230 -82 179 -86 185 -116 188 -30 3 -33 0 -60 -60z m105
-103 c23 -52 38 -97 34 -100 -12 -7 -146 -4 -158 4 -9 6 65 191 77 191 3 0 25
-43 47 -95z"/>
<path d="M3580 970 l0 -210 30 0 30 0 0 85 0 84 107 3 c106 3 107 3 107 27 0
24 -1 24 -90 22 -124 -3 -124 -3 -124 80 l0 69 120 0 120 0 0 25 0 25 -150 0
-150 0 0 -210z"/>
<path d="M3960 970 l0 -210 30 0 30 0 0 65 0 65 68 0 67 0 44 -65 c40 -59 48
-65 78 -65 l34 0 -45 64 c-26 35 -46 66 -46 70 0 3 16 21 36 39 31 28 37 42
41 84 7 70 -16 116 -71 143 -35 16 -62 20 -154 20 l-112 0 0 -210z m254 131
c28 -27 35 -76 15 -113 -16 -30 -70 -48 -144 -48 l-65 0 0 96 0 96 84 -3 c73
-4 88 -7 110 -28z"/>
<path d="M4400 970 l0 -210 30 0 30 0 0 210 0 210 -30 0 -30 0 0 -210z"/>
<path d="M5048 987 c-113 -250 -106 -227 -70 -227 26 0 32 6 53 55 l24 55 111
0 112 0 23 -55 c21 -47 28 -55 52 -55 15 0 27 4 27 9 0 5 -41 100 -91 210 -91
199 -92 201 -123 201 -31 -1 -32 -3 -118 -193z m197 -50 c6 -23 5 -24 -74 -24
-45 -1 -83 2 -86 7 -3 4 14 51 38 104 l42 96 37 -80 c21 -44 40 -90 43 -103z"/>
</g>
</svg>
